<?xml version="1.0" standalone="no"?>
<!DOCTYPE svg PUBLIC "-//W3C//DTD SVG 20010904//EN"
 "http://www.w3.org/TR/2001/REC-SVG-20010904/DTD/svg10.dtd">
<svg version="1.0" xmlns="http://www.w3.org/2000/svg"
 width="256.000000pt" height="256.000000pt" viewBox="0 0 256.000000 256.000000"
 preserveAspectRatio="xMidYMid meet">
<metadata>
Created by potrace 1.11, written by Peter Selinger 2001-2013
</metadata>
<g transform="translate(0.000000,256.000000) scale(0.100000,-0.100000)"
fill="#000000" stroke="none">
<path d="M1417 2358 c-57 -57 -92 -112 -133 -213 -7 -16 -9 -11 -12 23 -2 23
-8 42 -13 42 -25 0 -90 -43 -121 -80 l-35 -40 -36 15 c-42 17 -103 20 -112 4
-4 -6 3 -21 16 -35 12 -13 20 -27 16 -30 -4 -4 -33 1 -65 10 -97 27 -215 17
-293 -24 -18 -10 -20 -17 -15 -53 11 -69 70 -178 135 -249 35 -37 61 -75 61
-87 0 -12 7 -24 15 -27 8 -4 15 -18 15 -33 0 -32 25 -139 35 -149 3 -4 13 2
21 12 16 23 19 8 6 -39 -12 -40 -5 -55 23 -55 19 0 25 -8 34 -47 7 -27 26 -70
43 -96 l30 -48 -25 -57 c-14 -31 -30 -84 -36 -117 -25 -147 -20 -135 -60 -135
-42 0 -94 -13 -113 -29 -7 -6 -28 -22 -45 -37 -18 -14 -33 -32 -33 -39 0 -7
-9 -24 -20 -38 -25 -31 -25 -33 -1 -40 10 -2 21 -17 24 -33 3 -16 10 -49 17
-73 10 -40 9 -48 -10 -72 -11 -16 -20 -33 -20 -38 0 -6 -18 -28 -41 -51 -32
-32 -39 -44 -33 -62 10 -33 34 -63 69 -86 53 -35 214 -81 315 -90 106 -10 134
-8 267 15 93 15 137 15 469 -3 127 -7 187 5 288 59 93 50 100 74 62 212 -20
72 -51 106 -103 114 l-38 6 -8 75 c-12 113 -14 118 -57 148 -22 15 -39 34 -40
42 0 9 -7 40 -14 70 -13 49 -13 56 1 67 14 11 13 16 -5 55 -11 24 -31 69 -46
101 -14 32 -34 69 -45 83 -23 30 -17 60 14 68 29 7 55 62 55 116 0 37 2 41 20
35 13 -4 22 -1 26 9 10 25 -16 115 -42 146 -29 34 -30 42 -4 58 31 19 24 38
-21 51 -36 11 -39 14 -24 24 15 11 13 17 -19 59 -19 25 -48 55 -63 67 l-28 20
28 1 c37 0 34 19 -8 60 -19 19 -35 41 -35 49 0 8 -8 24 -19 35 -14 16 -21 48
-29 133 -8 92 -16 125 -42 180 -31 68 -56 103 -71 103 -5 0 -37 -28 -72 -62z
m117 -59 c15 -45 30 -111 33 -147 6 -65 6 -65 -18 -59 -13 3 -48 9 -76 13 -51
6 -64 16 -43 29 26 16 7 27 -40 23 -58 -6 -61 0 -29 68 24 50 114 154 134 154
7 0 24 -36 39 -81z m-293 -206 c8 -9 20 -7 52 8 58 26 85 25 89 -3 3 -21 9
-23 71 -26 62 -3 68 -5 62 -22 -5 -16 2 -23 32 -37 21 -10 40 -19 42 -20 3 -2
-4 -10 -15 -17 -10 -8 -17 -16 -14 -18 3 -2 23 -12 44 -23 43 -21 61 -47 28
-38 -11 2 -23 -1 -28 -8 -5 -8 15 -32 57 -70 60 -55 62 -58 37 -59 -40 0 -35
-21 14 -66 24 -21 37 -39 30 -42 -21 -7 -13 -27 28 -67 43 -42 69 -95 45 -95
-9 0 -15 -20 -20 -62 -9 -78 -21 -104 -40 -88 -11 9 -16 4 -26 -29 -7 -22 -24
-55 -39 -73 -24 -28 -30 -31 -43 -19 -20 16 -33 8 -58 -33 -18 -29 -23 -31
-76 -31 -53 0 -58 -2 -61 -22 -4 -27 -7 -27 -62 -8 -55 19 -60 19 -60 -5 0
-33 -58 -20 -112 25 -36 31 -46 31 -50 3 -3 -22 -6 -20 -49 20 -27 24 -53 40
-61 37 -19 -8 -53 54 -73 138 -11 43 -22 67 -32 67 -10 0 -12 8 -8 33 8 41
-17 107 -39 107 -9 0 -16 -6 -17 -12 0 -7 -5 -2 -11 12 -5 14 -7 52 -4 88 7
62 6 63 -15 57 -20 -7 -21 -5 -14 31 3 22 16 56 28 76 23 42 17 59 -13 40 -52
-32 10 63 63 98 l38 24 -23 17 -22 17 37 7 c21 4 54 5 72 2 46 -7 51 5 19 42
-32 39 -12 42 40 6 l37 -25 15 37 c9 20 32 52 52 71 l37 33 3 -33 c2 -18 8
-38 13 -45z m-351 -69 c3 -3 -3 -11 -13 -18 -20 -15 -22 -33 -5 -38 8 -3 2
-17 -15 -39 -46 -61 -73 -159 -43 -159 9 0 12 -7 9 -20 -3 -11 -8 -20 -12 -20
-20 0 -114 113 -140 170 -48 100 -47 102 58 126 51 12 148 10 161 -2z m888
-937 c11 -29 23 -60 27 -69 5 -13 2 -18 -10 -18 -12 0 -15 -5 -10 -17 37 -97
48 -145 35 -168 -26 -48 6 -246 55 -338 45 -86 44 -122 -4 -154 -35 -24 -81
-31 -81 -12 0 6 -9 8 -21 4 -12 -4 -40 0 -65 10 -50 19 -74 54 -74 108 0 18
-3 37 -7 41 -8 7 -10 55 -11 194 -1 34 -5 62 -11 62 -16 0 -36 -139 -23 -160
8 -13 8 -29 2 -52 -14 -48 -12 -78 5 -78 17 0 21 -45 5 -55 -16 -10 -11 -33 8
-37 11 -3 2 -9 -23 -16 -51 -15 -85 -15 -85 -1 0 8 -19 9 -64 4 l-64 -6 -4 43
c-3 24 -1 47 3 52 4 5 -1 26 -12 47 -21 42 -24 66 -9 71 11 4 -41 168 -53 168
-11 0 2 -152 19 -220 8 -30 14 -71 14 -91 0 -67 -79 -149 -116 -119 -11 10
-21 10 -45 0 -22 -10 -33 -10 -42 -1 -6 6 -23 11 -39 11 -37 0 -53 30 -39 73
5 18 10 55 10 82 1 28 1 61 2 75 1 41 -27 162 -41 170 -17 10 -18 168 -1 198
9 18 10 27 1 37 -9 11 -9 23 1 52 7 21 12 48 11 61 -2 31 25 82 44 82 8 0 17
7 21 16 5 13 8 13 27 -4 34 -31 87 -54 113 -49 14 2 45 -2 70 -9 61 -19 97
-18 90 0 -5 12 6 14 64 9 38 -3 69 -2 69 2 0 5 -8 17 -17 28 -18 20 -17 20 12
14 17 -4 40 -9 52 -13 16 -4 23 -1 28 15 3 12 13 21 21 21 8 0 32 11 52 25
l37 26 26 -31 c15 -18 36 -55 47 -83z m-829 -276 c16 -10 33 -95 25 -127 -4
-16 -1 -26 9 -30 31 -11 43 -151 18 -196 -14 -25 -14 -29 2 -40 15 -12 16 -19
5 -67 -11 -47 -17 -56 -47 -68 -31 -13 -35 -13 -43 1 -7 12 -14 14 -28 6 -42
-23 -90 -6 -90 31 0 10 -11 30 -26 46 -21 23 -24 33 -19 68 10 59 35 80 95 79
45 0 50 1 44 19 -7 21 -8 21 65 1 18 -5 23 -4 19 7 -7 22 -49 39 -100 39 -37
0 -50 -4 -58 -20 -21 -39 -50 -19 -50 35 0 13 -4 27 -10 30 -11 7 -13 104 -2
121 11 17 68 44 92 44 11 0 20 7 20 15 0 17 55 21 79 6z m950 -65 c8 -10 13
-51 15 -108 1 -51 5 -99 10 -106 6 -9 19 -12 41 -8 27 5 39 2 63 -21 17 -15
34 -40 37 -56 6 -23 1 -33 -33 -67 -51 -51 -92 -56 -92 -10 0 17 -7 47 -15 66
-8 20 -12 40 -9 45 3 5 -9 26 -26 46 -27 30 -31 41 -25 69 4 22 0 44 -10 63
-15 30 -21 102 -9 114 8 8 36 -7 53 -27z"/>
<path d="M1390 1740 c-11 -11 -20 -29 -20 -40 0 -25 34 -60 58 -60 25 0 52 31
52 58 0 25 -33 62 -55 62 -8 0 -24 -9 -35 -20z"/>
<path d="M1162 1624 c-52 -36 -5 -122 53 -96 14 6 28 23 31 38 6 22 2 32 -20
51 -32 27 -35 28 -64 7z"/>
<path d="M1399 1405 c-36 -20 -55 -66 -38 -97 17 -32 28 -38 72 -38 76 0 130
96 75 134 -28 20 -74 20 -109 1z m76 -24 c7 -12 -12 -24 -25 -16 -11 7 -4 25
10 25 5 0 11 -4 15 -9z"/>
</g>
</svg>
