<?xml version="1.0" standalone="no"?>
<!DOCTYPE svg PUBLIC "-//W3C//DTD SVG 20010904//EN"
 "http://www.w3.org/TR/2001/REC-SVG-20010904/DTD/svg10.dtd">
<svg version="1.0" xmlns="http://www.w3.org/2000/svg"
 width="300.000000pt" height="300.000000pt" viewBox="0 0 300.000000 300.000000"
 preserveAspectRatio="xMidYMid meet">
<metadata>
Created by potrace 1.11, written by Peter Selinger 2001-2013
</metadata>
<g transform="translate(0.000000,300.000000) scale(0.100000,-0.100000)"
fill="#000000" stroke="none">
<path d="M0 1500 l0 -1500 1500 0 1500 0 0 1500 0 1500 -1500 0 -1500 0 0
-1500z m1430 1071 c135 -45 220 -99 320 -200 174 -177 249 -374 237 -625 -7
-145 -23 -211 -83 -331 -302 -610 -1174 -610 -1482 0 -186 370 -62 831 287
1062 146 97 284 134 486 129 126 -2 149 -6 235 -35z m941 -1007 c54 -32 73
-67 77 -142 6 -97 -19 -144 -136 -259 l-95 -93 132 0 131 0 0 -50 0 -50 -210
0 -210 0 0 36 c0 32 12 49 115 157 121 127 155 180 155 238 -1 86 -98 115
-181 54 l-32 -24 -28 37 -29 37 33 28 c17 15 52 34 77 42 58 19 159 13 201
-11z m-543 -836 c7 -7 12 -24 12 -40 0 -50 -66 -62 -91 -17 -23 43 44 92 79
57z m-258 -218 l0 -220 -35 0 c-25 0 -35 4 -35 16 0 13 -5 12 -34 -5 -61 -38
-136 -18 -162 44 -23 55 -18 156 9 196 28 43 80 69 135 69 l42 0 0 53 c0 30 3
57 7 60 3 4 21 7 40 7 l33 0 0 -220z m-801 181 c62 -12 94 -48 94 -105 0 -35
-6 -52 -23 -71 -13 -14 -29 -25 -37 -25 -15 0 -17 -16 -3 -25 10 -6 90 -158
90 -170 0 -3 -20 -5 -44 -5 l-43 0 -33 76 c-30 68 -54 94 -86 94 -2 0 -4 -38
-4 -85 l0 -85 -40 0 -40 0 0 205 0 205 63 0 c34 -1 82 -5 106 -9z m395 -95
c45 -19 56 -55 56 -192 l0 -114 -35 0 c-24 0 -35 5 -35 15 0 12 -6 12 -37 -5
-69 -37 -135 -22 -159 36 -33 79 29 144 136 144 46 0 50 2 50 23 0 13 -5 28
-12 35 -15 15 -97 16 -133 2 -25 -10 -26 -9 -23 22 2 25 9 34 28 39 44 12 129
10 164 -5z m674 -118 l3 -128 44 0 c43 0 45 -1 45 -30 l0 -30 -135 0 -135 0 0
30 c0 29 1 30 50 30 l50 0 0 95 0 95 -45 0 c-45 0 -45 0 -45 35 l0 36 83 -3
82 -3 3 -127z m389 112 c44 -26 65 -72 66 -140 1 -97 -51 -159 -141 -168 -100
-9 -162 52 -162 160 0 103 60 168 154 168 33 0 62 -7 83 -20z"/>
<path d="M1010 2257 c-36 -13 -85 -35 -109 -51 l-44 -28 172 -172 c94 -94 171
-175 171 -181 0 -5 -17 -26 -37 -47 l-37 -38 -177 176 -177 177 -31 -49 c-48
-75 -71 -162 -71 -263 0 -135 43 -240 136 -335 96 -96 217 -146 358 -146 139
0 247 42 344 133 101 96 152 215 152 354 0 226 -141 413 -359 477 -80 23 -210
20 -291 -7z"/>
<path d="M1395 525 c-21 -20 -25 -34 -25 -80 0 -31 5 -65 10 -76 15 -27 61
-25 88 4 19 20 22 35 22 100 l0 77 -35 0 c-25 0 -44 -8 -60 -25z"/>
<path d="M680 575 c0 -55 0 -55 31 -55 49 0 69 16 69 55 0 39 -20 55 -69 55
-31 0 -31 0 -31 -55z"/>
<path d="M1054 420 c-42 -17 -40 -66 3 -76 33 -9 77 24 81 59 3 25 0 27 -30
26 -18 0 -42 -4 -54 -9z"/>
<path d="M2086 518 c-24 -34 -21 -123 4 -148 30 -30 85 -27 106 5 23 35 22
120 -1 145 -26 29 -89 27 -109 -2z"/>
</g>
</svg>
